<svg width="23" height="25" viewBox="0 0 23 25" fill="none" xmlns="http://www.w3.org/2000/svg">
<path d="M11.5751 0.000575383C15.9052 0.0799782 19.6664 4.17018 19.0491 8.43684C18.544 11.926 15.1378 14.8063 11.4764 14.8063C7.07098 14.8063 3.13425 10.5051 3.94925 6.09426C4.56575 2.75628 7.75127 0.0673198 11.3778 0.000575383C11.4764 -0.000191794 11.4764 -0.000191794 11.5751 0.000575383ZM11.4083 2.30172C7.92599 2.36578 5.09627 6.34014 6.72628 9.61292C8.15461 12.4818 12.646 13.3709 15.1108 11.0955C17.9921 8.43607 16.4686 2.39263 11.5446 2.30172C11.4764 2.30134 11.4764 2.30134 11.4083 2.30172ZM11.5945 16.3411C16.2812 16.4036 20.7972 19.1021 22.8848 23.2579C23.3242 24.1325 22.4351 25.309 21.4201 24.9185C20.6669 24.6285 20.4624 23.6691 19.9794 22.9871C17.0637 18.8689 10.7466 17.422 6.20843 20.045C4.46274 21.0538 3.04708 22.5709 2.16473 24.3477C2.16473 24.3477 1.7598 24.9703 1.15043 24.9987C0.218553 25.0416 -0.372986 24.0466 0.269268 22.8747C2.42306 18.9429 6.87129 16.3204 11.5945 16.3411Z" fill="white" fill-opacity="0.85"/>
</svg>
